<?xml version="1.0" encoding="UTF-8" standalone="no"?>
<svg
   xmlns:dc="http://purl.org/dc/elements/1.1/"
   xmlns:cc="http://creativecommons.org/ns#"
   xmlns:rdf="http://www.w3.org/1999/02/22-rdf-syntax-ns#"
   xmlns:svg="http://www.w3.org/2000/svg"
   xmlns="http://www.w3.org/2000/svg"
   xmlns:sodipodi="http://sodipodi.sourceforge.net/DTD/sodipodi-0.dtd"
   xmlns:inkscape="http://www.inkscape.org/namespaces/inkscape"
   version="1.1"
   height="102.66999816894531"
   width="277.88999938964844"
   id="svg892"
   sodipodi:docname="logo.svg"
   inkscape:version="0.92.3 (3ce5693, 2018-03-11)">
  <metadata
     id="metadata896">
    <rdf:RDF>
      <cc:Work
         rdf:about="">
        <dc:format>image/svg+xml</dc:format>
        <dc:type
           rdf:resource="http://purl.org/dc/dcmitype/StillImage" />
      </cc:Work>
    </rdf:RDF>
  </metadata>
  <sodipodi:namedview
     pagecolor="#ffffff"
     bordercolor="#666666"
     borderopacity="1"
     objecttolerance="10"
     gridtolerance="10"
     guidetolerance="10"
     inkscape:pageopacity="0"
     inkscape:pageshadow="2"
     inkscape:window-width="1855"
     inkscape:window-height="1056"
     id="namedview894"
     showgrid="false"
     inkscape:zoom="3.4529629"
     inkscape:cx="133.4572"
     inkscape:cy="64.991688"
     inkscape:window-x="65"
     inkscape:window-y="24"
     inkscape:window-maximized="1"
     inkscape:current-layer="SvgjsG1102" />
  <defs
     id="SvgjsDefs1100" />
  <g
     id=""
     rel="mainfill"
     name="main_text"
     transform="matrix(0.80764714,0,0,0.85240174,111.84582,-119.58206)"
     style="fill:#000000">
    <path
       d="m 56.31,254.49 h 7.56 v -21.8 h -7.81 v -80.87 h -7.81 v 80.87 H 17.51 V 151.82 H 9.7 V 240 h 46.61 z m 75.21,-102.67 -15.75,38.04 c -2.27,5.67 -5.42,14.74 -7.05,19.65 h -0.51 c -1.64,-4.91 -4.78,-13.98 -7.05,-19.65 L 85.41,151.82 H 77.1 V 240 h 7.81 v -46.61 c 0,-9.32 -0.25,-17.13 -0.76,-24.94 l 0.51,-0.13 c 2.26,6.3 5.79,14.74 9.07,23.18 l 10.83,27.71 h 7.81 L 123.2,191.5 c 3.28,-8.44 6.81,-16.88 9.07,-23.18 l 0.51,0.13 c -0.51,7.81 -0.76,15.62 -0.76,24.94 V 240 h 7.81 v -88.18 z m 48.88,0 H 159.23 V 240 h 7.81 v -33.38 h 13.36 c 16.25,0 25.19,-9.58 25.19,-27.72 0,-17.26 -8.94,-27.08 -25.19,-27.08 z m 0,47.36 h -13.36 v -39.93 h 13.36 c 11.84,0 17.38,6.55 17.38,19.65 0,13.99 -5.54,20.28 -17.38,20.28 z"
       style="fill:#000000"
       id="path884"
       inkscape:connector-curvature="0" />
  </g>
  <g
     id="SvgjsG1102"
     rel="mainfill"
     name="symbol"
     transform="matrix(2.187129,0,0,2.1228128,-13.300631,-7.1961672)"
     style="fill:#000000">
    <g
       transform="matrix(0.98111876,0,0,1.0142323,6.2685814,-1015.1405)"
       id="g889"
       style="fill:#000000">
      <path
         style="font-style:normal;font-variant:normal;font-weight:normal;font-stretch:normal;font-size:medium;line-height:normal;font-family:sans-serif;text-indent:0px;text-align:start;text-decoration:none;text-decoration-line:none;text-decoration-style:solid;text-decoration-color:#000000;letter-spacing:normal;word-spacing:normal;text-transform:none;writing-mode:lr-tb;direction:ltr;baseline-shift:baseline;text-anchor:start;white-space:normal;clip-rule:nonzero;display:inline;overflow:visible;visibility:visible;opacity:1;isolation:auto;mix-blend-mode:normal;color-interpolation:sRGB;color-interpolation-filters:linearRGB;fill:#000000;fill-opacity:1;fill-rule:nonzero;stroke:none;stroke-width:1;stroke-linecap:round;stroke-linejoin:round;stroke-miterlimit:4;stroke-dasharray:none;stroke-dashoffset:0;stroke-opacity:1;color-rendering:auto;image-rendering:auto;shape-rendering:auto;text-rendering:auto"
         d="m 24,1004.3621 c -13.2489,0 -23.99998,10.7511 -24,24 0,13.2489 10.75109,24 24,24 13.24891,0 24,-10.7511 24,-24 -2e-5,-13.2489 -10.7511,-24 -24,-24 z m 0,1 c 12.70846,0 22.99998,10.2915 23,23 0,12.7085 -10.29153,23 -23,23 -12.70847,0 -23,-10.2915 -23,-23 2e-5,-12.7085 10.29154,-23 23,-23 z m -1.925128,2.6897 c -0.271443,8e-4 -0.510695,0.1666 -0.590191,0.4091 l -2.476864,7.5197 c -0.01862,0.054 -0.02841,0.1122 -0.02903,0.1694 v 0.043 c -0.06645,0.024 -0.12783,0.06 -0.181412,0.1041 l -8.282012,6.9413 c -0.159968,0.133 -0.23498,0.3339 -0.198343,0.531 -0.0051,0.03 -0.0076,0.061 -0.0073,0.093 v 0.9557 c -0.01189,0.7823 1.250275,0.7823 1.238432,0 v -0.5694 h 1.238401 v 0.5694 c -0.01189,0.7823 0.01189,0.2129 0,-0.5694 h 1.238431 3.405687 0.16206 l -7.077443,5.9313 c -0.159968,0.1331 -0.23498,0.3339 -0.198344,0.531 -0.0051,0.03 -0.0076,0.061 -0.0073,0.093 v 0.9557 c -0.01189,0.7823 1.250275,0.7823 1.238432,0 v -0.5694 h 1.238432 1.238431 c -0.156117,-0.1862 -0.02996,1.0209 0,0 h 4.571555 l -5.572943,10.4119 H 5.3559389 v 1.1569 H 15.686686 l 0.0073,0.012 0.0073,-0.012 h 16.45518 l 0.0073,0.012 0.0073,-0.012 h 10.338005 v -1.1569 h -7.667636 l -5.572944,-10.4119 h 4.571555 v 0 c -0.01189,0.7823 0.01189,0.7823 0,0 h 1.238432 1.238432 v 0.5694 c -0.01177,0.7822 1.250215,0.7822 1.238433,0 v -0.9557 c -5.56e-4,-0.031 -0.0038,-0.062 -0.0097,-0.093 0.03517,-0.1941 -0.03772,-0.3916 -0.193505,-0.5241 l -7.046002,-5.9337 h 0.128197 3.405689 1.238431 c -0.01189,0.7823 0.01189,0.7823 0,0 v 0 h 1.238432 v 0.5694 c -0.01189,0.7823 1.250276,0.7823 1.238432,0 v -0.9556 c -5.56e-4,-0.031 -0.0038,-0.062 -0.0097,-0.093 0.03696,-0.1956 -0.03609,-0.3953 -0.193506,-0.5288 l -8.243312,-6.9413 c -0.06423,-0.054 -0.140098,-0.096 -0.222662,-0.1219 v -0.031 c 1.73e-4,-0.058 -0.0088,-0.1145 -0.0266,-0.1693 l -2.476863,-7.5197 c -0.07958,-0.2434 -0.320141,-0.4097 -0.592614,-0.4096 z m 0.457155,1.1569 h 2.800984 l 2.285777,6.9413 h -7.372539 z m -1.281972,8.0982 h 5.374602 l -2.6873,2.133 z m 7.636193,0.3615 6.438877,5.4229 h -4.890838 -1.548039 z m -9.907456,0.034 v 5.389 h -1.54804 -4.883581 l 6.431621,-5.3886 z m 1.238431,0.3029 2.762283,2.1939 -2.762283,2.1918 z m 7.430592,0.012 v 4.3699 l -2.755026,-2.185 2.755026,-2.1871 z m -3.710458,2.9441 2.689718,2.133 h -5.379438 z m -2.68972,3.2898 h 5.379438 l -2.689718,2.1331 z m 7.638611,0.3594 6.438877,5.4228 h -6.438877 z m -9.907456,0.031 v 5.3912 h -6.431621 l 6.431621,-5.3907 z m 1.238431,0.3073 2.762283,2.1917 -2.762283,2.1918 z m 7.430592,0.012 v 4.3699 l -2.752608,-2.185 2.752608,-2.1891 z m -3.710458,2.9442 2.687299,2.133 h -5.374601 z m -2.822755,3.2899 h 5.628576 l -2.815497,2.5397 z m 6.978275,0.3909 5.364925,10.021 h -0.800628 l -7.83695,-7.0701 3.272652,-2.9509 z m -8.323134,0 3.267815,2.9464 -7.836952,7.0701 h -0.793371 z m 4.157938,3.7508 6.946829,6.2657 H 16.98327 Z"
         id="path887"
         inkscape:connector-curvature="0"
         sodipodi:nodetypes="scscsscscscccccccccccccccccccccccccccccccccccccccccccccccccccccccccccccccccccccccccccccccccccccccccccccccccccccccccccccccccccccccccccccccccccccccccccccccccccc" />
    </g>
  </g>
</svg>
