<?xml version="1.0" standalone="no"?>
<!DOCTYPE svg PUBLIC "-//W3C//DTD SVG 20010904//EN" "http://www.w3.org/TR/2001/REC-SVG-20010904/DTD/svg10.dtd">
<svg version="1.0" xmlns="http://www.w3.org/2000/svg" width="806.000000pt" height="899.000000pt" viewBox="0 0 780.000000 780.000000" preserveAspectRatio="xMidYMid meet">

  <g transform="translate(0.000000,899.000000) scale(0.100000,-0.100000)" fill="#000000" stroke="none">

    <path
      d="M3595 8473 c-974 -138 -1804 -563 -2410 -1234 -160 -177 -212 -239
-295 -357 -159 -225 -313 -504 -419 -760 -107 -256 -198 -566 -257 -877 l-29
-150 0 -425 c0 -422 0 -426 28 -585 181 -1020 692 -1881 1465 -2468 537 -408
1109 -646 1853 -772 133 -23 174 -25 434 -25 199 0 325 5 413 16 729 89 1374
343 1928 757 481 360 873 834 1135 1372 181 372 296 742 374 1204 23 135 25
175 25 440 0 318 -16 473 -80 791 -151 749 -510 1423 -1039 1950 -613 611
-1409 1001 -2266 1110 -135 17 -211 20 -495 19 -184 -1 -348 -4 -365 -6z m746
-168 c733 -72 1393 -341 1979 -804 134 -106 459 -435 564 -571 427 -553 674
-1143 762 -1820 24 -191 30 -589 10 -790 -66 -695 -305 -1323 -702 -1850 -316
-420 -628 -703 -1064 -964 -778 -468 -1725 -628 -2620 -446 -1388 284 -2495
1356 -2830 2740 -73 304 -95 504 -94 855 1 368 26 591 100 887 299 1192 1201
2178 2359 2577 292 101 630 172 925 194 133 10 473 5 611 -8z"/>
    <path
      d="M3682 7108 c-52 -136 -89 -249 -162 -505 -66 -233 -110 -362 -162
-474 -32 -69 -46 -85 -193 -219 -88 -80 -258 -232 -380 -339 -371 -326 -486
-434 -509 -476 -18 -35 -21 -54 -19 -155 1 -63 6 -128 10 -143 l8 -28 65 68
c36 37 81 87 101 111 l35 43 85 -100 c46 -55 88 -99 94 -97 5 1 33 41 63 89
l54 87 201 0 200 0 -24 -26 c-13 -15 -157 -144 -319 -288 -162 -143 -359 -324
-438 -401 l-142 -140 6 -142 c4 -79 10 -143 13 -143 3 0 49 39 101 85 127 115
144 114 236 -11 30 -40 59 -74 63 -74 5 0 11 15 15 32 11 53 51 104 103 129
46 23 56 24 203 20 85 -3 192 -5 238 -5 45 -1 82 -2 82 -4 0 -1 -160 -322
-355 -712 l-355 -710 -495 0 -495 0 0 -78 0 -79 713 -6 c913 -9 2476 -9 3380
0 l707 6 0 41 c0 23 -3 58 -6 79 l-7 37 -491 0 -492 0 -352 708 c-194 389
-352 710 -352 712 0 6 235 15 350 14 140 -2 246 -52 280 -134 17 -42 35 -38
73 17 42 62 91 113 109 113 8 0 62 -40 119 -90 71 -61 106 -85 111 -77 4 7 8
71 8 143 l0 131 -117 118 c-65 65 -237 225 -383 354 -146 130 -299 268 -340
308 l-75 72 200 1 201 0 53 -90 c29 -49 57 -90 62 -90 4 0 45 43 90 95 45 52
84 95 86 95 3 0 50 -48 106 -107 l102 -106 7 54 c3 30 6 92 7 140 1 109 -23
163 -106 235 -32 27 -148 130 -258 229 -110 99 -301 271 -425 381 -124 110
-242 220 -264 244 -62 69 -68 85 -270 745 -30 99 -73 233 -96 298 l-42 117
-288 0 -288 0 -40 -102z m541 -180 c20 -68 86 -283 146 -478 l109 -355 -466
-3 c-256 -1 -467 0 -469 2 -8 7 206 708 259 852 l34 89 89 6 c50 3 128 6 175
7 l86 2 37 -122z m82 -1125 c6 -67 12 -124 16 -127 3 -3 38 28 79 69 41 41 78
75 82 75 7 0 -1 -560 -8 -569 -1 -2 -29 17 -61 42 -66 52 -204 191 -318 322
-43 50 -82 91 -85 93 -4 1 -44 -41 -91 -95 -131 -153 -218 -241 -299 -306
l-75 -60 -6 114 c-4 63 -7 195 -8 294 l-1 180 84 -84 84 -83 6 38 c3 22 8 81
12 132 l6 92 287 -2 286 -3 10 -122z m865 -397 c96 -88 203 -186 238 -218 l63
-58 -411 0 -410 0 0 370 0 371 172 -153 c95 -84 252 -225 348 -312z m-1803
-273 c-2 -2 -187 -2 -411 -1 l-407 3 228 206 c125 113 309 277 408 365 l180
158 3 -364 c1 -200 1 -365 -1 -367z m766 183 c67 -57 142 -122 167 -144 l45
-41 -335 0 -335 0 55 51 c57 53 272 237 278 238 2 0 59 -47 125 -104z m207
-350 c0 -3 -75 -68 -166 -146 l-166 -141 -56 48 c-117 98 -250 213 -262 228
-11 13 25 15 319 15 182 0 331 -2 331 -4z m-970 -421 l0 -365 -405 0 -405 0
103 96 c56 53 221 203 367 333 145 130 280 251 300 268 19 18 36 33 38 33 1 0
2 -164 2 -365z m1525 150 c221 -198 555 -506 555 -511 0 -2 -180 -4 -400 -4
l-400 0 0 367 0 366 23 -19 c12 -11 112 -101 222 -199z m-406 -121 c1 -55 -2
-142 -5 -192 l-7 -91 -174 141 -174 140 42 37 c23 20 101 80 173 133 l131 97
7 -82 c3 -45 6 -127 7 -183z m-890 226 c62 -31 292 -222 281 -233 -20 -19
-342 -277 -346 -277 -2 0 -4 119 -4 265 0 295 -4 283 69 245z m517 -426 c54
-48 125 -111 157 -140 l58 -54 -323 0 -323 0 80 73 c150 138 230 206 241 206
6 1 56 -38 110 -85z m72 -531 c-93 -93 -172 -169 -176 -171 -4 -1 -86 74 -182
167 l-175 170 351 0 351 1 -169 -167z m-427 -161 l128 -123 -297 -293 c-438
-431 -598 -578 -760 -697 l-43 -31 20 48 c91 231 231 524 493 1031 l172 332
79 -72 c44 -40 138 -127 208 -195z m1055 -269 c246 -488 413 -848 400 -860
-20 -20 -468 381 -761 681 -38 39 -128 127 -200 196 l-129 124 204 198 c113
109 207 198 210 198 3 0 127 -242 276 -537z m-355 -410 c146 -142 301 -295
344 -340 l78 -83 -879 0 -879 0 140 141 c77 78 275 271 440 429 l300 288 95
-88 c52 -48 215 -204 361 -347z"/>
    <path d="M56.31 254.49L63.87 254.49L63.87 232.69L56.06 232.69L56.06 151.82L48.25 151.82L48.25 232.69L17.51 232.69L17.51 151.82L9.70 151.82L9.70 240L56.31 240ZM131.52 151.82L115.77 189.86C113.50 195.53 110.35 204.60 108.72 209.51L108.21 209.51C106.57 204.60 103.43 195.53 101.16 189.86L85.41 151.82L77.10 151.82L77.10 240L84.91 240L84.91 193.39C84.91 184.07 84.66 176.26 84.15 168.45L84.66 168.32C86.92 174.62 90.45 183.06 93.73 191.50L104.56 219.21L112.37 219.21L123.20 191.50C126.48 183.06 130.01 174.62 132.27 168.32L132.78 168.45C132.27 176.26 132.02 184.07 132.02 193.39L132.02 240L139.83 240L139.83 151.82ZM180.40 151.82L159.23 151.82L159.23 240L167.04 240L167.04 206.62L180.40 206.62C196.65 206.62 205.59 197.04 205.59 178.90C205.59 161.64 196.65 151.82 180.40 151.82ZM180.40 199.18L167.04 199.18L167.04 159.25L180.40 159.25C192.24 159.25 197.78 165.80 197.78 178.90C197.78 192.89 192.24 199.18 180.40 199.18Z"></path>
  </g>
</svg>
